<svg width="14" height="21" viewBox="0 0 14 21" fill="none" xmlns="http://www.w3.org/2000/svg">
<path d="M11 0H2.99999C2.20434 0 1.44128 0.316071 0.878672 0.87868C0.316063 1.44129 -7.37587e-06 2.20435 -7.37587e-06 3V19C-0.000706943 19.1762 0.0451673 19.3495 0.132971 19.5023C0.220774 19.655 0.347388 19.7819 0.499993 19.87C0.652012 19.9578 0.824456 20.004 0.999993 20.004C1.17553 20.004 1.34797 19.9578 1.49999 19.87L6.99999 16.69L12.5 19.87C12.6524 19.9564 12.8248 20.0012 13 20C13.1752 20.0012 13.3476 19.9564 13.5 19.87C13.6526 19.7819 13.7792 19.655 13.867 19.5023C13.9548 19.3495 14.0007 19.1762 14 19V3C14 2.20435 13.6839 1.44129 13.1213 0.87868C12.5587 0.316071 11.7956 0 11 0ZM12 17.27L7.49999 14.67C7.34797 14.5822 7.17553 14.536 6.99999 14.536C6.82446 14.536 6.65201 14.5822 6.49999 14.67L1.99999 17.27V3C1.99999 2.73478 2.10535 2.48043 2.29289 2.29289C2.48042 2.10536 2.73478 2 2.99999 2H11C11.2652 2 11.5196 2.10536 11.7071 2.29289C11.8946 2.48043 12 2.73478 12 3V17.27Z" fill="#ACAFC3"/>
</svg>
